<svg width="60" height="60" viewBox="0 0 60 60" fill="none" xmlns="http://www.w3.org/2000/svg">
<rect width="60" height="60" rx="3" fill="#D6D3D3"/>
<path d="M45.3018 37.7773C46.9584 37.7774 48.3015 39.1207 48.3018 40.7773V57C48.3018 58.6568 46.9585 59.9999 45.3018 60H14C12.3431 60 11 58.6569 11 57V40.7773C11.0002 39.1207 12.3433 37.7773 14 37.7773H45.3018ZM37.3652 10C39.022 10.0001 40.3652 11.3432 40.3652 13V29.2227C40.365 30.8793 39.0219 32.2226 37.3652 32.2227H21.1426C19.486 32.2225 18.1428 30.8792 18.1426 29.2227V13C18.1426 11.3432 19.4859 10.0002 21.1426 10H37.3652Z" fill="#2E2121"/>
</svg>
