<?xml version="1.0" encoding="iso-8859-1"?>
<svg fill="#000000" version="1.1" id="Layer_1" xmlns="http://www.w3.org/2000/svg"
	 viewBox="0 0 512 512" xml:space="preserve">
<g>
	<g>
		<rect x="102.4" y="102.4" width="34.133" height="34.133"/>
	</g>
</g>
<g>
	<g>
		<rect x="68.267" y="68.267" width="34.133" height="34.133"/>
	</g>
</g>
<g>
	<g>
		<rect x="34.133" y="34.133" width="34.133" height="34.133"/>
	</g>
</g>
<g>
	<g>
		<rect x="170.667" width="34.133" height="68.267"/>
	</g>
</g>
<g>
	<g>
		<rect y="170.667" width="68.267" height="34.133"/>
	</g>
</g>
<g>
	<g>
		<rect x="307.2" y="443.733" width="34.133" height="68.267"/>
	</g>
</g>
<g>
	<g>
		<rect x="443.733" y="307.2" width="68.267" height="34.133"/>
	</g>
</g>
<g>
	<g>
		<rect x="443.733" y="443.733" width="34.133" height="34.133"/>
	</g>
</g>
<g>
	<g>
		<rect x="409.6" y="409.6" width="34.133" height="34.133"/>
	</g>
</g>
<g>
	<g>
		<rect x="375.467" y="375.467" width="34.133" height="34.133"/>
	</g>
</g>
<g>
	<g>
		<rect x="307.2" width="136.533" height="34.133"/>
	</g>
</g>
<g>
	<g>
		<rect x="443.733" y="34.133" width="34.133" height="34.133"/>
	</g>
</g>
<g>
	<g>
		<rect x="477.867" y="68.267" width="34.133" height="136.533"/>
	</g>
</g>
<g>
	<g>
		<rect x="238.933" y="68.267" width="34.133" height="34.133"/>
	</g>
</g>
<g>
	<g>
		<polygon points="238.933,136.533 238.933,102.4 204.8,102.4 204.8,170.667 273.067,170.667 273.067,136.533 		"/>
	</g>
</g>
<g>
	<g>
		<rect x="273.067" y="34.133" width="34.133" height="34.133"/>
	</g>
</g>
<g>
	<g>
		<rect x="409.6" y="238.933" width="34.133" height="34.133"/>
	</g>
</g>
<g>
	<g>
		<rect x="443.733" y="204.8" width="34.133" height="34.133"/>
	</g>
</g>
<g>
	<g>
		<rect x="375.467" y="204.8" width="34.133" height="34.133"/>
	</g>
</g>
<g>
	<g>
		<polygon points="375.467,273.067 375.467,238.933 341.333,238.933 341.333,307.2 409.6,307.2 409.6,273.067 		"/>
	</g>
</g>
<g>
	<g>
		<rect x="409.6" y="102.4" width="34.133" height="102.4"/>
	</g>
</g>
<g>
	<g>
		<rect x="273.067" y="102.4" width="34.133" height="34.133"/>
	</g>
</g>
<g>
	<g>
		<rect x="307.2" y="68.267" width="102.4" height="34.133"/>
	</g>
</g>
<g>
	<g>
		<rect x="68.267" y="238.933" width="34.133" height="34.133"/>
	</g>
</g>
<g>
	<g>
		<rect x="34.133" y="273.067" width="34.133" height="34.133"/>
	</g>
</g>
<g>
	<g>
		<rect y="307.2" width="34.133" height="136.533"/>
	</g>
</g>
<g>
	<g>
		<rect x="34.133" y="443.733" width="34.133" height="34.133"/>
	</g>
</g>
<g>
	<g>
		<rect x="68.267" y="477.867" width="136.533" height="34.133"/>
	</g>
</g>
<g>
	<g>
		<polygon points="238.933,341.333 238.933,375.467 273.067,375.467 273.067,409.6 307.2,409.6 307.2,341.333 		"/>
	</g>
</g>
<g>
	<g>
		<rect x="238.933" y="409.6" width="34.133" height="34.133"/>
	</g>
</g>
<g>
	<g>
		<rect x="204.8" y="443.733" width="34.133" height="34.133"/>
	</g>
</g>
<g>
	<g>
		<rect x="204.8" y="375.467" width="34.133" height="34.133"/>
	</g>
</g>
<g>
	<g>
		<rect x="102.4" y="409.6" width="102.4" height="34.133"/>
	</g>
</g>
<g>
	<g>
		<polygon points="102.4,204.8 102.4,238.933 136.533,238.933 136.533,273.067 170.667,273.067 170.667,204.8 		"/>
	</g>
</g>
<g>
	<g>
		<rect x="102.4" y="273.067" width="34.133" height="34.133"/>
	</g>
</g>
<g>
	<g>
		<rect x="68.267" y="307.2" width="34.133" height="102.4"/>
	</g>
</g>
</svg>