<svg width="44" height="44" viewBox="0 0 44 44" fill="none" xmlns="http://www.w3.org/2000/svg">
<path d="M8 28H6C4.93913 28 3.92172 27.5786 3.17157 26.8284C2.42143 26.0783 2 25.0609 2 24V6C2 4.93913 2.42143 3.92172 3.17157 3.17157C3.92172 2.42143 4.93913 2 6 2H24C25.0609 2 26.0783 2.42143 26.8284 3.17157C27.5786 3.92172 28 4.93913 28 6V8M20 16H38C40.2091 16 42 17.7909 42 20V38C42 40.2091 40.2091 42 38 42H20C17.7909 42 16 40.2091 16 38V20C16 17.7909 17.7909 16 20 16Z" stroke="#99a1af" stroke-width="4" stroke-linecap="round" stroke-linejoin="round"/>
</svg>
