<?xml version="1.0" standalone="no"?>
<!DOCTYPE svg PUBLIC "-//W3C//DTD SVG 20010904//EN"
 "http://www.w3.org/TR/2001/REC-SVG-20010904/DTD/svg10.dtd">
<svg version="1.0" xmlns="http://www.w3.org/2000/svg"
 width="1254.000000pt" height="1254.000000pt" viewBox="0 0 1254.000000 1254.000000"
 preserveAspectRatio="xMidYMid meet">

<g transform="translate(0.000000,1254.000000) scale(0.100000,-0.100000)"
fill="#000000" stroke="none">
<path d="M5770 9731 l0 -219 988 -1 c543 0 995 0 1005 0 16 -1 17 -20 17 -266
l0 -265 273 2 272 3 3 258 c2 202 0 257 -10 258 -7 0 -129 1 -271 1 -149 0
-260 4 -263 10 -3 5 -5 105 -5 223 l1 215 -1005 0 -1005 0 0 -219z"/>
<path d="M5205 9497 c-3 -6 -6 -111 -7 -232 l-3 -220 -240 -5 -240 -5 -5 -245
-5 -245 -222 -3 -223 -2 0 -285 0 -285 225 0 225 0 2 288 3 287 242 3 243 2 2
243 3 242 278 3 277 2 0 233 0 232 -275 2 c-212 2 -277 0 -280 -10z"/>
<path d="M6987 8963 c-4 -3 -7 -116 -7 -250 l0 -243 398 2 397 3 0 245 0 245
-391 3 c-215 1 -393 -1 -397 -5z"/>
<path d="M6490 7985 l0 -475 -207 -2 -208 -3 0 -810 0 -810 70 0 c39 0 132 -1
208 -3 l137 -2 0 -435 0 -435 240 0 240 0 0 430 0 430 -229 0 c-180 0 -231 3
-240 14 -8 10 -10 233 -9 822 l3 809 238 3 237 2 0 470 0 470 -240 0 -240 0 0
-475z"/>
<path d="M3772 6698 l3 -1261 225 2 c124 1 233 -1 243 -4 16 -7 17 -30 17
-296 l0 -289 225 0 225 0 2 -237 3 -238 242 -3 243 -2 2 -222 3 -222 264 1
c156 1 272 -2 283 -8 17 -9 18 -27 18 -224 l0 -215 1005 0 1005 0 -2 218 -3
217 -1005 5 -1005 5 -2 210 c-1 116 -3 216 -3 223 0 9 -62 12 -275 12 l-275 0
-6 27 c-4 15 -4 120 -1 235 l6 208 -237 0 c-172 0 -241 3 -250 12 -9 9 -12 87
-12 290 l0 278 -222 2 -223 3 -3 1268 -2 1267 -245 0 -245 0 2 -1262z"/>
<path d="M6980 4755 l0 -245 400 0 400 0 0 -270 0 -270 275 0 275 0 -2 263 -3
262 -270 5 -270 5 -3 248 -2 247 -400 0 -400 0 0 -245z"/>
</g>
</svg>
