<?xml version="1.0" standalone="no"?>
<!DOCTYPE svg PUBLIC "-//W3C//DTD SVG 20010904//EN"
 "http://www.w3.org/TR/2001/REC-SVG-20010904/DTD/svg10.dtd">
<svg version="1.0" xmlns="http://www.w3.org/2000/svg"
 width="1254.000000pt" height="1254.000000pt" viewBox="0 0 1254.000000 1254.000000"
 preserveAspectRatio="xMidYMid meet">

<g transform="translate(0.000000,1254.000000) scale(0.100000,-0.100000)"
fill="#000000" stroke="none">
<path d="M6047 10634 c-9 -10 -9 -942 1 -946 4 -2 109 -2 235 0 l227 3 0 469
0 470 -214 0 c-118 0 -221 2 -228 5 -8 3 -17 2 -21 -1z"/>
<path d="M3237 9623 c-4 -3 -7 -107 -7 -230 l0 -223 230 0 230 0 0 230 0 230
-223 0 c-123 0 -227 -3 -230 -7z"/>
<path d="M8860 9400 l0 -230 230 0 230 0 0 230 0 230 -230 0 -230 0 0 -230z"/>
<path d="M3710 8925 l0 -224 223 -3 c122 -2 225 -2 230 0 4 2 7 104 7 228 l0
224 -230 0 -230 0 0 -225z"/>
<path d="M8387 9143 c-2 -5 -3 -106 -3 -226 l1 -218 220 0 c121 0 225 0 230 0
6 1 11 84 12 226 l2 225 -229 0 c-126 0 -231 -3 -233 -7z"/>
<path d="M4190 8450 l0 -230 225 0 225 0 0 230 0 230 -225 0 -225 0 0 -230z"/>
<path d="M5590 8450 l0 -230 675 -1 c371 -1 681 -2 688 -3 9 -1 12 51 12 229
l0 230 -687 3 -688 2 0 -230z"/>
<path d="M7920 8678 c-4 -45 -1 -448 3 -454 3 -5 105 -8 226 -6 l221 3 0 229
0 230 -225 0 c-124 0 -225 -1 -225 -2z"/>
<path d="M5125 8187 c-3 -7 -4 -109 -3 -227 l3 -215 225 0 225 0 -2 225 -2
225 -221 3 c-173 2 -222 0 -225 -11z"/>
<path d="M6980 7970 l0 -230 228 2 227 3 0 225 0 225 -227 3 -228 2 0 -230z"/>
<path d="M4658 7723 c-2 -5 -2 -108 0 -230 l3 -223 225 0 224 0 -2 228 -3 227
-222 3 c-122 1 -223 -1 -225 -5z"/>
<path d="M7450 7500 l0 -230 225 0 225 0 0 230 0 230 -225 0 -225 0 0 -230z"/>
<path d="M4408 7253 l-218 -3 0 -695 0 -695 225 0 225 0 0 700 c0 385 -3 699
-7 698 -5 -2 -106 -4 -225 -5z"/>
<path d="M7920 6558 l0 -698 224 0 223 0 -1 695 -1 695 -223 3 -222 2 0 -697z"/>
<path d="M2285 6781 c-3 -2 -5 -105 -5 -228 l0 -223 468 2 467 3 0 224 0 224
-463 2 c-254 0 -465 -1 -467 -4z"/>
<path d="M9345 6779 c-2 -3 -5 -104 -6 -225 l-1 -219 466 -3 466 -2 0 227 0
228 -461 0 c-253 0 -462 -3 -464 -6z"/>
<path d="M4660 5620 l0 -230 225 0 225 0 -2 226 -3 225 -222 5 -223 4 0 -230z"/>
<path d="M7455 5841 c-3 -2 -5 -105 -5 -228 l0 -223 225 0 225 0 0 228 0 227
-220 1 c-121 0 -223 -2 -225 -5z"/>
<path d="M5127 5374 c-4 -4 -7 -108 -7 -231 l0 -223 225 2 225 3 2 225 3 225
-221 3 c-121 1 -223 -1 -227 -4z"/>
<path d="M6987 5374 c-4 -4 -7 -108 -7 -231 l0 -223 230 0 230 0 -2 228 -3
227 -221 3 c-121 1 -223 -1 -227 -4z"/>
<path d="M4194 4901 c-2 -2 -4 -105 -4 -228 l0 -223 225 0 225 0 -2 227 -3
228 -218 0 c-120 0 -220 -2 -223 -4z"/>
<path d="M5590 4680 l0 -225 687 1 688 2 0 223 0 223 -687 1 -688 0 0 -225z"/>
<path d="M7919 4900 c0 -3 -1 -104 0 -225 l1 -220 225 -3 225 -2 -2 227 -3
228 -222 0 c-123 0 -223 -2 -224 -5z"/>
<path d="M8385 4430 c-2 -3 -3 -103 -2 -223 0 -155 4 -220 12 -227 12 -10 429
-10 438 0 2 3 7 105 10 227 l6 222 -231 3 c-126 2 -231 1 -233 -2z"/>
<path d="M3709 4426 c-2 -2 -2 -105 1 -228 l5 -223 225 0 225 0 3 228 2 227
-228 0 c-126 0 -231 -2 -233 -4z"/>
<path d="M3232 3733 l3 -228 225 0 225 0 3 228 2 227 -230 0 -230 0 2 -227z"/>
<path d="M8862 3733 l3 -228 225 0 225 0 0 225 0 225 -228 3 -227 2 2 -227z"/>
<path d="M6057 3484 c-4 -4 -7 -214 -7 -466 l0 -458 225 0 225 0 2 450 c0 248
1 456 2 463 1 9 -51 13 -220 15 -121 1 -223 -1 -227 -4z"/>
</g>
</svg>
