<svg width="34" height="34" viewBox="0 0 34 34" fill="none" xmlns="http://www.w3.org/2000/svg">
<mask id="path-1-inside-1_1257_67" fill="white">
<path d="M10.5 30H4.5C4.10218 30 3.72064 29.842 3.43934 29.5607C3.15804 29.2794 3 28.8978 3 28.5V22.5C3 22.1022 2.84196 21.7206 2.56066 21.4393C2.27936 21.158 1.89782 21 1.5 21C1.10218 21 0.720644 21.158 0.43934 21.4393C0.158035 21.7206 0 22.1022 0 22.5V28.5C0 29.6935 0.474106 30.8381 1.31802 31.682C2.16193 32.5259 3.30653 33 4.5 33H10.5C10.8978 33 11.2794 32.842 11.5607 32.5607C11.842 32.2794 12 31.8978 12 31.5C12 31.1022 11.842 30.7206 11.5607 30.4393C11.2794 30.158 10.8978 30 10.5 30ZM31.5 21C31.1022 21 30.7206 21.158 30.4393 21.4393C30.158 21.7206 30 22.1022 30 22.5V28.5C30 28.8978 29.842 29.2794 29.5607 29.5607C29.2794 29.842 28.8978 30 28.5 30H22.5C22.1022 30 21.7206 30.158 21.4393 30.4393C21.158 30.7206 21 31.1022 21 31.5C21 31.8978 21.158 32.2794 21.4393 32.5607C21.7206 32.842 22.1022 33 22.5 33H28.5C29.6935 33 30.8381 32.5259 31.682 31.682C32.5259 30.8381 33 29.6935 33 28.5V22.5C33 22.1022 32.842 21.7206 32.5607 21.4393C32.2794 21.158 31.8978 21 31.5 21ZM28.5 0H22.5C22.1022 0 21.7206 0.158035 21.4393 0.43934C21.158 0.720644 21 1.10218 21 1.5C21 1.89782 21.158 2.27936 21.4393 2.56066C21.7206 2.84196 22.1022 3 22.5 3H28.5C28.8978 3 29.2794 3.15804 29.5607 3.43934C29.842 3.72064 30 4.10218 30 4.5V10.5C30 10.8978 30.158 11.2794 30.4393 11.5607C30.7206 11.842 31.1022 12 31.5 12C31.8978 12 32.2794 11.842 32.5607 11.5607C32.842 11.2794 33 10.8978 33 10.5V4.5C33 3.30653 32.5259 2.16193 31.682 1.31802C30.8381 0.474106 29.6935 0 28.5 0ZM1.5 12C1.89782 12 2.27936 11.842 2.56066 11.5607C2.84196 11.2794 3 10.8978 3 10.5V4.5C3 4.10218 3.15804 3.72064 3.43934 3.43934C3.72064 3.15804 4.10218 3 4.5 3H10.5C10.8978 3 11.2794 2.84196 11.5607 2.56066C11.842 2.27936 12 1.89782 12 1.5C12 1.10218 11.842 0.720644 11.5607 0.43934C11.2794 0.158035 10.8978 0 10.5 0H4.5C3.30653 0 2.16193 0.474106 1.31802 1.31802C0.474106 2.16193 0 3.30653 0 4.5V10.5C0 10.8978 0.158035 11.2794 0.43934 11.5607C0.720644 11.842 1.10218 12 1.5 12ZM13.5 6H7.5C7.10218 6 6.72064 6.15804 6.43934 6.43934C6.15804 6.72064 6 7.10218 6 7.5V13.5C6 13.8978 6.15804 14.2794 6.43934 14.5607C6.72064 14.842 7.10218 15 7.5 15H13.5C13.8978 15 14.2794 14.842 14.5607 14.5607C14.842 14.2794 15 13.8978 15 13.5V7.5C15 7.10218 14.842 6.72064 14.5607 6.43934C14.2794 6.15804 13.8978 6 13.5 6ZM12 12H9V9H12V12ZM19.5 15H25.5C25.8978 15 26.2794 14.842 26.5607 14.5607C26.842 14.2794 27 13.8978 27 13.5V7.5C27 7.10218 26.842 6.72064 26.5607 6.43934C26.2794 6.15804 25.8978 6 25.5 6H19.5C19.1022 6 18.7206 6.15804 18.4393 6.43934C18.158 6.72064 18 7.10218 18 7.5V13.5C18 13.8978 18.158 14.2794 18.4393 14.5607C18.7206 14.842 19.1022 15 19.5 15ZM21 9H24V12H21V9ZM13.5 18H7.5C7.10218 18 6.72064 18.158 6.43934 18.4393C6.15804 18.7206 6 19.1022 6 19.5V25.5C6 25.8978 6.15804 26.2794 6.43934 26.5607C6.72064 26.842 7.10218 27 7.5 27H13.5C13.8978 27 14.2794 26.842 14.5607 26.5607C14.842 26.2794 15 25.8978 15 25.5V19.5C15 19.1022 14.842 18.7206 14.5607 18.4393C14.2794 18.158 13.8978 18 13.5 18ZM12 24H9V21H12V24ZM19.5 22.5C19.8978 22.5 20.2794 22.342 20.5607 22.0607C20.842 21.7794 21 21.3978 21 21C21.3978 21 21.7794 20.842 22.0607 20.5607C22.342 20.2794 22.5 19.8978 22.5 19.5C22.5 19.1022 22.342 18.7206 22.0607 18.4393C21.7794 18.158 21.3978 18 21 18H19.5C19.1022 18 18.7206 18.158 18.4393 18.4393C18.158 18.7206 18 19.1022 18 19.5V21C18 21.3978 18.158 21.7794 18.4393 22.0607C18.7206 22.342 19.1022 22.5 19.5 22.5ZM25.5 18C25.1022 18 24.7206 18.158 24.4393 18.4393C24.158 18.7206 24 19.1022 24 19.5V24C23.6022 24 23.2206 24.158 22.9393 24.4393C22.658 24.7206 22.5 25.1022 22.5 25.5C22.5 25.8978 22.658 26.2794 22.9393 26.5607C23.2206 26.842 23.6022 27 24 27H25.5C25.8978 27 26.2794 26.842 26.5607 26.5607C26.842 26.2794 27 25.8978 27 25.5V19.5C27 19.1022 26.842 18.7206 26.5607 18.4393C26.2794 18.158 25.8978 18 25.5 18ZM19.5 24C19.2033 24 18.9133 24.088 18.6666 24.2528C18.42 24.4176 18.2277 24.6519 18.1142 24.926C18.0007 25.2001 17.9709 25.5017 18.0288 25.7926C18.0867 26.0836 18.2296 26.3509 18.4393 26.5607C18.6491 26.7704 18.9164 26.9133 19.2074 26.9712C19.4983 27.0291 19.7999 26.9993 20.074 26.8858C20.3481 26.7723 20.5824 26.58 20.7472 26.3334C20.912 26.0867 21 25.7967 21 25.5C21 25.1022 20.842 24.7206 20.5607 24.4393C20.2794 24.158 19.8978 24 19.5 24Z"/>
</mask>
<path d="M10.5 30H4.5C4.10218 30 3.72064 29.842 3.43934 29.5607C3.15804 29.2794 3 28.8978 3 28.5V22.5C3 22.1022 2.84196 21.7206 2.56066 21.4393C2.27936 21.158 1.89782 21 1.5 21C1.10218 21 0.720644 21.158 0.43934 21.4393C0.158035 21.7206 0 22.1022 0 22.5V28.5C0 29.6935 0.474106 30.8381 1.31802 31.682C2.16193 32.5259 3.30653 33 4.5 33H10.5C10.8978 33 11.2794 32.842 11.5607 32.5607C11.842 32.2794 12 31.8978 12 31.5C12 31.1022 11.842 30.7206 11.5607 30.4393C11.2794 30.158 10.8978 30 10.5 30ZM31.5 21C31.1022 21 30.7206 21.158 30.4393 21.4393C30.158 21.7206 30 22.1022 30 22.5V28.5C30 28.8978 29.842 29.2794 29.5607 29.5607C29.2794 29.842 28.8978 30 28.5 30H22.5C22.1022 30 21.7206 30.158 21.4393 30.4393C21.158 30.7206 21 31.1022 21 31.5C21 31.8978 21.158 32.2794 21.4393 32.5607C21.7206 32.842 22.1022 33 22.5 33H28.5C29.6935 33 30.8381 32.5259 31.682 31.682C32.5259 30.8381 33 29.6935 33 28.5V22.5C33 22.1022 32.842 21.7206 32.5607 21.4393C32.2794 21.158 31.8978 21 31.5 21ZM28.5 0H22.5C22.1022 0 21.7206 0.158035 21.4393 0.43934C21.158 0.720644 21 1.10218 21 1.5C21 1.89782 21.158 2.27936 21.4393 2.56066C21.7206 2.84196 22.1022 3 22.5 3H28.5C28.8978 3 29.2794 3.15804 29.5607 3.43934C29.842 3.72064 30 4.10218 30 4.5V10.5C30 10.8978 30.158 11.2794 30.4393 11.5607C30.7206 11.842 31.1022 12 31.5 12C31.8978 12 32.2794 11.842 32.5607 11.5607C32.842 11.2794 33 10.8978 33 10.5V4.5C33 3.30653 32.5259 2.16193 31.682 1.31802C30.8381 0.474106 29.6935 0 28.5 0ZM1.5 12C1.89782 12 2.27936 11.842 2.56066 11.5607C2.84196 11.2794 3 10.8978 3 10.5V4.5C3 4.10218 3.15804 3.72064 3.43934 3.43934C3.72064 3.15804 4.10218 3 4.5 3H10.5C10.8978 3 11.2794 2.84196 11.5607 2.56066C11.842 2.27936 12 1.89782 12 1.5C12 1.10218 11.842 0.720644 11.5607 0.43934C11.2794 0.158035 10.8978 0 10.5 0H4.5C3.30653 0 2.16193 0.474106 1.31802 1.31802C0.474106 2.16193 0 3.30653 0 4.5V10.5C0 10.8978 0.158035 11.2794 0.43934 11.5607C0.720644 11.842 1.10218 12 1.5 12ZM13.5 6H7.5C7.10218 6 6.72064 6.15804 6.43934 6.43934C6.15804 6.72064 6 7.10218 6 7.5V13.5C6 13.8978 6.15804 14.2794 6.43934 14.5607C6.72064 14.842 7.10218 15 7.5 15H13.5C13.8978 15 14.2794 14.842 14.5607 14.5607C14.842 14.2794 15 13.8978 15 13.5V7.5C15 7.10218 14.842 6.72064 14.5607 6.43934C14.2794 6.15804 13.8978 6 13.5 6ZM12 12H9V9H12V12ZM19.5 15H25.5C25.8978 15 26.2794 14.842 26.5607 14.5607C26.842 14.2794 27 13.8978 27 13.5V7.5C27 7.10218 26.842 6.72064 26.5607 6.43934C26.2794 6.15804 25.8978 6 25.5 6H19.5C19.1022 6 18.7206 6.15804 18.4393 6.43934C18.158 6.72064 18 7.10218 18 7.5V13.5C18 13.8978 18.158 14.2794 18.4393 14.5607C18.7206 14.842 19.1022 15 19.5 15ZM21 9H24V12H21V9ZM13.5 18H7.5C7.10218 18 6.72064 18.158 6.43934 18.4393C6.15804 18.7206 6 19.1022 6 19.5V25.5C6 25.8978 6.15804 26.2794 6.43934 26.5607C6.72064 26.842 7.10218 27 7.5 27H13.5C13.8978 27 14.2794 26.842 14.5607 26.5607C14.842 26.2794 15 25.8978 15 25.5V19.5C15 19.1022 14.842 18.7206 14.5607 18.4393C14.2794 18.158 13.8978 18 13.5 18ZM12 24H9V21H12V24ZM19.5 22.5C19.8978 22.5 20.2794 22.342 20.5607 22.0607C20.842 21.7794 21 21.3978 21 21C21.3978 21 21.7794 20.842 22.0607 20.5607C22.342 20.2794 22.5 19.8978 22.5 19.5C22.5 19.1022 22.342 18.7206 22.0607 18.4393C21.7794 18.158 21.3978 18 21 18H19.5C19.1022 18 18.7206 18.158 18.4393 18.4393C18.158 18.7206 18 19.1022 18 19.5V21C18 21.3978 18.158 21.7794 18.4393 22.0607C18.7206 22.342 19.1022 22.5 19.5 22.5ZM25.5 18C25.1022 18 24.7206 18.158 24.4393 18.4393C24.158 18.7206 24 19.1022 24 19.5V24C23.6022 24 23.2206 24.158 22.9393 24.4393C22.658 24.7206 22.5 25.1022 22.5 25.5C22.5 25.8978 22.658 26.2794 22.9393 26.5607C23.2206 26.842 23.6022 27 24 27H25.5C25.8978 27 26.2794 26.842 26.5607 26.5607C26.842 26.2794 27 25.8978 27 25.5V19.5C27 19.1022 26.842 18.7206 26.5607 18.4393C26.2794 18.158 25.8978 18 25.5 18ZM19.5 24C19.2033 24 18.9133 24.088 18.6666 24.2528C18.42 24.4176 18.2277 24.6519 18.1142 24.926C18.0007 25.2001 17.9709 25.5017 18.0288 25.7926C18.0867 26.0836 18.2296 26.3509 18.4393 26.5607C18.6491 26.7704 18.9164 26.9133 19.2074 26.9712C19.4983 27.0291 19.7999 26.9993 20.074 26.8858C20.3481 26.7723 20.5824 26.58 20.7472 26.3334C20.912 26.0867 21 25.7967 21 25.5C21 25.1022 20.842 24.7206 20.5607 24.4393C20.2794 24.158 19.8978 24 19.5 24Z" stroke="#99a1af" stroke-width="10" mask="url(#path-1-inside-1_1257_67)"/>
</svg>
