<?xml version="1.0" standalone="no"?>
<!DOCTYPE svg PUBLIC "-//W3C//DTD SVG 20010904//EN"
 "http://www.w3.org/TR/2001/REC-SVG-20010904/DTD/svg10.dtd">
<svg version="1.0" xmlns="http://www.w3.org/2000/svg"
 width="1280.000000pt" height="890.000000pt" viewBox="0 0 1280.000000 890.000000"
 preserveAspectRatio="xMidYMid meet">

<g transform="translate(0.000000,890.000000) scale(0.100000,-0.100000)"
fill="#000000" stroke="none">
<path d="M4560 7058 c-1 -2 -1 -68 -2 -147 l0 -143 1471 -2 1470 -1 3 143 c2
79 1 146 -1 148 -5 4 -2941 6 -2941 2z"/>
<path d="M4254 6747 c-2 -7 -3 -78 -2 -157 l3 -143 145 1 145 1 3 156 3 155
-146 0 c-110 0 -147 -3 -151 -13z"/>
<path d="M7512 6602 l3 -154 140 1 c76 1 140 3 142 4 1 2 3 70 5 152 l2 150
-147 0 -147 0 2 -153z"/>
<path d="M9040 6599 l0 -160 143 5 142 6 5 151 c3 83 3 153 1 155 -2 2 -69 4
-148 4 l-143 0 0 -161z"/>
<path d="M3955 6428 c-3 -7 -4 -274 -3 -593 l3 -580 148 -3 147 -3 0 296 0
295 1780 0 1780 0 0 -295 0 -295 145 0 145 0 0 595 0 595 -145 0 -145 0 0
-149 0 -149 -172 -6 c-95 -4 -895 -6 -1778 -4 l-1605 3 -3 153 -3 152 -145 0
c-106 0 -146 -3 -149 -12z"/>
<path d="M8734 6427 c-2 -7 -3 -74 -2 -148 l3 -134 148 -3 147 -3 0 151 0 150
-145 0 c-110 0 -147 -3 -151 -13z"/>
<path d="M4560 5395 l0 -145 140 0 140 0 0 145 0 145 -140 0 -140 0 0 -145z"/>
<path d="M5140 5395 l0 -145 140 0 140 0 0 145 0 145 -140 0 -140 0 0 -145z"/>
<path d="M8535 5512 c-3 -3 -5 -63 -5 -134 l0 -128 370 2 371 3 1 130 0 130
-365 1 c-202 1 -369 -1 -372 -4z"/>
<path d="M4393 5242 l-143 -3 0 -149 0 -149 -52 -6 c-29 -3 -96 -5 -148 -3
l-95 3 0 -435 0 -435 147 -3 147 -3 3 -145 c2 -83 -1 -149 -6 -155 -6 -5 -74
-9 -153 -9 l-143 0 2 -437 3 -438 148 -3 147 -3 0 296 0 295 1040 0 1040 0 0
145 0 145 -887 2 -888 3 -5 150 -5 150 -120 1 c-66 0 -132 1 -148 2 l-27 2 2
298 3 297 1480 0 1480 0 3 -147 3 -148 139 0 139 0 3 141 c2 77 1 143 -1 145
-2 2 -64 4 -137 4 l-132 0 -7 73 c-3 39 -5 104 -3 142 l3 70 -1325 2 c-729 2
-1331 3 -1337 3 -10 0 -13 37 -13 149 0 83 -3 151 -7 153 -5 2 -72 2 -150 0z"/>
<path d="M7512 4950 l3 -291 293 -2 292 -2 0 143 0 142 -137 0 c-76 0 -144 4
-151 9 -11 6 -13 40 -10 150 l3 141 -148 0 -147 0 2 -290z"/>
<path d="M8110 4505 l0 -145 139 0 140 0 3 141 c2 77 1 143 -1 145 -2 2 -67 4
-143 4 l-138 0 0 -145z"/>
<path d="M4559 4346 c-2 -2 -3 -68 -1 -145 l3 -141 140 0 139 0 0 145 0 145
-138 0 c-76 0 -141 -2 -143 -4z"/>
<path d="M5140 4205 l0 -145 140 0 140 0 0 145 0 145 -140 0 -140 0 0 -145z"/>
<path d="M6920 4055 l0 -296 147 3 147 3 0 292 1 293 -147 0 -147 0 -1 -295z"/>
<path d="M8400 4055 l0 -295 143 0 142 0 0 295 0 295 -142 0 -143 0 0 -295z"/>
<path d="M7510 3575 l0 -455 295 1 295 1 0 454 0 454 -295 0 -295 0 0 -455z"/>
<path d="M8828 3752 l-138 -3 0 -144 0 -145 145 0 145 0 2 -292 3 -293 143 -3
142 -3 0 296 0 295 -145 0 -145 0 0 144 c0 80 -3 146 -7 148 -5 2 -70 2 -145
0z"/>
<path d="M6630 3605 l0 -145 145 0 145 0 0 145 0 145 -145 0 -145 0 0 -145z"/>
<path d="M6340 3165 l0 -296 142 3 142 3 -1 290 -2 290 -140 3 -141 3 0 -296z"/>
<path d="M4558 3019 c-2 -77 -1 -143 1 -145 2 -2 67 -4 143 -4 l138 0 0 145 0
145 -139 0 -140 0 -3 -141z"/>
<path d="M5140 3015 l0 -145 140 0 140 0 0 145 0 145 -140 0 -140 0 0 -145z"/>
<path d="M4252 2718 l3 -143 148 -3 c107 -2 147 -6 148 -15 1 -6 3 -73 4 -147
l2 -135 596 -3 597 -2 0 147 0 148 -576 -3 c-316 -2 -586 -1 -600 2 l-24 6 0
145 0 145 -150 0 -151 0 3 -142z"/>
<path d="M6040 2565 l0 -295 145 0 145 0 0 295 0 295 -145 0 -145 0 0 -295z"/>
<path d="M9280 2565 l0 -295 145 0 145 0 0 295 0 295 -145 0 -145 0 0 -295z"/>
<path d="M7510 2665 l0 -145 295 0 295 0 0 145 0 145 -295 0 -295 0 0 -145z"/>
<path d="M3955 2412 c-3 -3 -5 -70 -5 -149 l0 -143 -150 0 -150 0 0 -145 0
-145 150 0 150 0 0 145 0 145 150 0 150 0 0 149 0 150 -145 -1 c-79 0 -147 -3
-150 -6z"/>
<path d="M6340 2123 l0 -143 1465 0 1465 0 0 143 0 142 -1465 0 -1465 0 0
-142z"/>
</g>
</svg>
