<svg width="44" height="44" viewBox="0 0 44 44" fill="none" xmlns="http://www.w3.org/2000/svg">
<path d="M36 0C37.0054 2.9158e-06 38.0008 0.198309 38.9297 0.583008C39.8584 0.967744 40.7032 1.53137 41.4141 2.24219C42.1249 2.95313 42.6895 3.79772 43.0742 4.72656C43.4589 5.65542 43.6572 6.65187 43.6572 7.65723C43.6571 8.66239 43.4589 9.65824 43.0742 10.5869C42.6894 11.5157 42.125 12.3604 41.4141 13.0713L14.4141 40.0713C14.1681 40.3171 13.8619 40.4944 13.5264 40.5859L2.52636 43.5859C1.83417 43.7747 1.09339 43.5784 0.585931 43.0713C0.0786049 42.564 -0.118207 41.8231 0.070306 41.1309L3.07031 30.1309L3.10839 30.0059C3.20707 29.7191 3.37073 29.4575 3.58593 29.2422L30.5859 2.24219C31.2968 1.53136 32.1415 0.967745 33.0703 0.583008C33.9992 0.198306 34.9946 0 36 0ZM6.78906 31.6953L4.8496 38.8057L11.96 36.8672L33.8828 14.9443L28.5449 9.93945L6.78906 31.6953ZM36 4C35.5198 4 35.0442 4.09455 34.6006 4.27832C34.157 4.46209 33.7536 4.73176 33.4141 5.07129L31.375 7.10938L36.7129 12.1143L38.5859 10.2422C38.9252 9.90283 39.1952 9.49995 39.3789 9.05664C39.5626 8.61324 39.6571 8.13717 39.6572 7.65723C39.6572 7.17732 39.5624 6.70122 39.3789 6.25781C39.1952 5.81434 38.9253 5.41077 38.5859 5.07129C38.2464 4.73177 37.843 4.46209 37.3994 4.27832C36.9557 4.09455 36.4802 4 36 4Z" fill="#99a1af"/>
</svg>
