<svg width="379" height="90" viewBox="0 0 379 90" fill="none" xmlns="http://www.w3.org/2000/svg">
<path d="M33 36H38.375V68.4375H60V73.8125H33V36Z" fill="#51A2FF"/>
<path d="M65.375 36H70.75V41.4375H65.375V36ZM65.375 46.8125H70.75V73.8125H65.375V46.8125Z" fill="#51A2FF"/>
<path d="M76.125 46.8125H97.75V49.5H100.438V52.1875H103.125V73.8125H97.75V54.9375H95V52.1875H84.25V54.9375H81.5V73.8125H76.125V46.8125Z" fill="#51A2FF"/>
<path d="M108.5 36H113.875V57.625H116.625V54.9375H119.312V52.1875H122V49.5H124.688V46.8125H130.125V52.1875H127.375V54.9375H124.688V57.625H122V63H124.688V65.6875H127.375V68.4375H130.125V73.8125H124.688V71.125H122V68.4375H119.312V65.6875H116.625V63H113.875V73.8125H108.5V36Z" fill="#51A2FF"/>
<path d="M140.875 36H162.5V41.4375H143.625V46.8125H157.125V49.5H159.812V52.1875H162.5V68.4375H159.812V71.125H157.125V73.8125H140.875V71.125H138.188V68.4375H135.5V63H140.875V65.6875H143.625V68.4375H154.375V65.6875H157.125V54.9375H154.375V52.1875H140.875V49.5H138.188V46.8125H135.5V41.4375H138.188V38.6875H140.875V36Z" fill="#E4E4E7"/>
<path d="M167.875 36H173.25V49.5H176V46.8125H189.5V49.5H192.188V52.1875H194.875V73.8125H189.5V54.9375H186.75V52.1875H178.688V54.9375H176V57.625H173.25V73.8125H167.875V36Z" fill="#E4E4E7"/>
<path d="M205.625 46.8125H221.875V49.5H224.562V52.1875H227.25V68.4375H224.562V71.125H221.875V73.8125H205.625V71.125H202.938V68.4375H200.25V52.1875H202.938V49.5H205.625V46.8125ZM208.375 52.1875V54.9375H205.625V65.6875H208.375V68.4375H219.125V65.6875H221.875V54.9375H219.125V52.1875H208.375Z" fill="#E4E4E7"/>
<path d="M232.625 46.8125H238V49.5H240.75V46.8125H254.25V49.5H256.938V52.1875H259.625V57.625H254.25V54.9375H251.5V52.1875H243.438V54.9375H240.75V57.625H238V73.8125H232.625V46.8125Z" fill="#E4E4E7"/>
<path d="M270.375 36H275.812V46.8125H281.188V52.1875H275.812V65.6875H278.5V68.4375H281.188V73.8125H275.812V71.125H273.125V68.4375H270.375V52.1875H265V46.8125H270.375V36Z" fill="#E4E4E7"/>
<path d="M291.938 46.8125H308.188V49.5H310.875V52.1875H313.562V63H291.938V65.6875H294.688V68.4375H313.562V73.8125H291.938V71.125H289.25V68.4375H286.562V52.1875H289.25V49.5H291.938V46.8125ZM294.688 52.1875V54.9375H291.938V57.625H308.188V54.9375H305.438V52.1875H294.688Z" fill="#E4E4E7"/>
<path d="M318.938 46.8125H324.312V49.5H327.062V46.8125H340.562V49.5H343.25V52.1875H345.938V57.625H340.562V54.9375H337.812V52.1875H329.75V54.9375H327.062V57.625H324.312V73.8125H318.938V60.3125V46.8125Z" fill="#E4E4E7"/>
</svg>
