<svg width="379" height="106" viewBox="0 0 379 106" fill="none" xmlns="http://www.w3.org/2000/svg">
<path d="M33 65H38.375V97.4375H60V102.812H33V65Z" fill="#51A2FF"/>
<path d="M65.375 65H70.75V70.4375H65.375V65ZM65.375 75.8125H70.75V102.812H65.375V75.8125Z" fill="#51A2FF"/>
<path d="M76.125 75.8125H97.75V78.5H100.438V81.1875H103.125V102.812H97.75V83.9375H95V81.1875H84.25V83.9375H81.5V102.812H76.125V75.8125Z" fill="#51A2FF"/>
<path d="M108.5 65H113.875V86.625H116.625V83.9375H119.312V81.1875H122V78.5H124.688V75.8125H130.125V81.1875H127.375V83.9375H124.688V86.625H122V92H124.688V94.6875H127.375V97.4375H130.125V102.812H124.688V100.125H122V97.4375H119.312V94.6875H116.625V92H113.875V102.812H108.5V65Z" fill="#51A2FF"/>
<path d="M140.875 65H162.5V70.4375H143.625V75.8125H157.125V78.5H159.812V81.1875H162.5V97.4375H159.812V100.125H157.125V102.812H140.875V100.125H138.188V97.4375H135.5V92H140.875V94.6875H143.625V97.4375H154.375V94.6875H157.125V83.9375H154.375V81.1875H140.875V78.5H138.188V75.8125H135.5V70.4375H138.188V67.6875H140.875V65Z" fill="#E4E4E7"/>
<path d="M167.875 65H173.25V78.5H176V75.8125H189.5V78.5H192.188V81.1875H194.875V102.812H189.5V83.9375H186.75V81.1875H178.688V83.9375H176V86.625H173.25V102.812H167.875V65Z" fill="#E4E4E7"/>
<path d="M205.625 75.8125H221.875V78.5H224.562V81.1875H227.25V97.4375H224.562V100.125H221.875V102.812H205.625V100.125H202.938V97.4375H200.25V81.1875H202.938V78.5H205.625V75.8125ZM208.375 81.1875V83.9375H205.625V94.6875H208.375V97.4375H219.125V94.6875H221.875V83.9375H219.125V81.1875H208.375Z" fill="#E4E4E7"/>
<path d="M232.625 75.8125H238V78.5H240.75V75.8125H254.25V78.5H256.938V81.1875H259.625V86.625H254.25V83.9375H251.5V81.1875H243.438V83.9375H240.75V86.625H238V102.812H232.625V75.8125Z" fill="#E4E4E7"/>
<path d="M270.375 65H275.812V75.8125H281.188V81.1875H275.812V94.6875H278.5V97.4375H281.188V102.812H275.812V100.125H273.125V97.4375H270.375V81.1875H265V75.8125H270.375V65Z" fill="#E4E4E7"/>
<path d="M291.938 75.8125H308.188V78.5H310.875V81.1875H313.562V92H291.938V94.6875H294.688V97.4375H313.562V102.812H291.938V100.125H289.25V97.4375H286.562V81.1875H289.25V78.5H291.938V75.8125ZM294.688 81.1875V83.9375H291.938V86.625H308.188V83.9375H305.438V81.1875H294.688Z" fill="#E4E4E7"/>
<path d="M318.938 75.8125H324.312V78.5H327.062V75.8125H340.562V78.5H343.25V81.1875H345.938V86.625H340.562V83.9375H337.812V81.1875H329.75V83.9375H327.062V86.625H324.312V102.812H318.938V89.3125V75.8125Z" fill="#E4E4E7"/>
</svg>
